<svg width="24" height="26" viewBox="0 0 24 26" fill="none" xmlns="http://www.w3.org/2000/svg">
<path d="M19.92 8.595C19.73 8.595 19.54 8.525 19.39 8.375L12.87 1.855C12.39 1.375 11.61 1.375 11.13 1.855L4.61002 8.375C4.32002 8.665 3.84002 8.665 3.55002 8.375C3.26002 8.085 3.26002 7.605 3.55002 7.315L10.07 0.795C11.13 -0.265 12.86 -0.265 13.93 0.795L20.45 7.315C20.74 7.605 20.74 8.085 20.45 8.375C20.3 8.515 20.11 8.595 19.92 8.595Z" fill="white"/>
<path d="M12 25.1925C11.3 25.1925 10.6 24.9225 10.07 24.3925L3.55002 17.8725C3.26002 17.5825 3.26002 17.1025 3.55002 16.8125C3.84002 16.5225 4.32002 16.5225 4.61002 16.8125L11.13 23.3325C11.61 23.8125 12.39 23.8125 12.87 23.3325L19.39 16.8125C19.68 16.5225 20.16 16.5225 20.45 16.8125C20.74 17.1025 20.74 17.5825 20.45 17.8725L13.93 24.3925C13.4 24.9225 12.7 25.1925 12 25.1925Z" fill="white"/>
</svg>
