<svg width="22" height="22" viewBox="0 0 22 22" fill="none" xmlns="http://www.w3.org/2000/svg">
<path d="M15.75 21.5H5.75C1.34 21.5 0 20.16 0 15.75V5.75C0 1.34 1.34 0 5.75 0H7.25C9 0 9.55 0.57 10.25 1.5L11.75 3.5C12.08 3.94 12.13 4 12.75 4H15.75C20.16 4 21.5 5.34 21.5 9.75V15.75C21.5 20.16 20.16 21.5 15.75 21.5ZM5.75 1.5C2.18 1.5 1.5 2.18 1.5 5.75V15.75C1.5 19.32 2.18 20 5.75 20H15.75C19.32 20 20 19.32 20 15.75V9.75C20 6.18 19.32 5.5 15.75 5.5H12.75C11.47 5.5 11.05 5.06 10.55 4.4L9.05 2.4C8.53 1.71 8.38 1.5 7.25 1.5H5.75Z" fill="#FF7A00"/>
</svg>
