<svg width="13" height="21" viewBox="0 0 13 21" fill="none" xmlns="http://www.w3.org/2000/svg">
<path d="M11.9139 12.4135C12.3861 11.9413 12.4536 11.2666 12.0488 10.592C11.7115 10.0523 11.1043 9.78242 10.4297 9.91735C10.1598 9.98481 9.88993 10.1197 9.62007 10.3221C7.52866 11.7389 4.69513 11.6714 2.60372 10.2547C2.46879 10.1872 2.33386 10.1197 2.19893 10.0523C1.45682 9.71495 0.71471 9.84989 0.30992 10.5245C-0.162334 11.1992 -0.0948774 11.9413 0.512307 12.5485C0.647237 12.6834 0.782166 12.7509 0.849631 12.8858L0.9171 12.9533C1.86161 13.6954 3.00851 14.1676 4.49274 14.37L3.6157 15.2471C2.87358 15.9892 2.06401 16.7988 1.32189 17.5409C1.1195 17.7433 0.849631 18.0806 0.849631 18.5529C0.849631 19.16 1.18696 19.7672 1.79415 20.0371C1.99654 20.172 2.19893 20.172 2.40133 20.172C2.73865 20.172 3.14344 20.0371 3.4133 19.6998C4.42527 18.6878 5.23486 17.8782 6.04444 17.0686C6.1119 17.0012 6.1119 17.0012 6.1119 17.0012C6.1119 17.0012 6.17937 17.0012 6.17937 17.0686C6.71908 17.6758 7.32627 18.2155 7.86599 18.8227C8.13585 19.0926 8.4057 19.3624 8.67556 19.6323C9.01289 19.9696 9.28275 20.1046 9.68754 20.1046C10.2947 20.172 10.9694 19.7672 11.2392 19.16C11.5091 18.6203 11.3742 17.9457 10.9019 17.5409C10.2273 16.8662 9.55261 16.1241 8.81049 15.4495L7.66359 14.3026C8.27078 14.2351 8.94543 14.1002 9.55261 13.8303C10.5646 13.493 11.3067 13.0207 11.9139 12.4135Z" fill="#F4F4F4"/>
<path d="M6.1119 10.5245C9.01289 10.5245 11.3742 8.23071 11.3742 5.32972C11.3742 3.91296 10.8344 2.56367 9.82247 1.55169C8.81049 0.539721 7.52866 0 6.17936 0C3.27837 0 0.984564 2.36127 0.9171 5.19479C0.9171 6.61156 1.45682 7.89339 2.46879 8.90536C3.4133 9.9848 4.69513 10.5245 6.1119 10.5245ZM4.62767 3.77804C5.03246 3.37325 5.57218 3.17085 6.1119 3.17085C7.32626 3.17085 8.20331 4.11536 8.20331 5.26226C8.20331 6.47663 7.2588 7.35367 6.1119 7.35367C4.89753 7.35367 4.02049 6.40917 4.02049 5.26226C4.02049 4.72255 4.22288 4.18283 4.62767 3.77804Z" fill="#F4F4F4"/>
<path d="M11.9139 12.4135C12.3861 11.9413 12.4536 11.2666 12.0488 10.592C11.7115 10.0523 11.1043 9.78242 10.4297 9.91735C10.1598 9.98481 9.88993 10.1197 9.62007 10.3221C7.52866 11.7389 4.69513 11.6714 2.60372 10.2547C2.46879 10.1872 2.33386 10.1197 2.19893 10.0523C1.45682 9.71495 0.71471 9.84989 0.30992 10.5245C-0.162334 11.1992 -0.0948774 11.9413 0.512307 12.5485C0.647237 12.6834 0.782166 12.7509 0.849631 12.8858L0.9171 12.9533C1.86161 13.6954 3.00851 14.1676 4.49274 14.37L3.6157 15.2471C2.87358 15.9892 2.06401 16.7988 1.32189 17.5409C1.1195 17.7433 0.849631 18.0806 0.849631 18.5529C0.849631 19.16 1.18696 19.7672 1.79415 20.0371C1.99654 20.172 2.19893 20.172 2.40133 20.172C2.73865 20.172 3.14344 20.0371 3.4133 19.6998C4.42527 18.6878 5.23486 17.8782 6.04444 17.0686C6.1119 17.0012 6.1119 17.0012 6.1119 17.0012C6.1119 17.0012 6.17937 17.0012 6.17937 17.0686C6.71908 17.6758 7.32627 18.2155 7.86599 18.8227C8.13585 19.0926 8.4057 19.3624 8.67556 19.6323C9.01289 19.9696 9.28275 20.1046 9.68754 20.1046C10.2947 20.172 10.9694 19.7672 11.2392 19.16C11.5091 18.6203 11.3742 17.9457 10.9019 17.5409C10.2273 16.8662 9.55261 16.1241 8.81049 15.4495L7.66359 14.3026C8.27078 14.2351 8.94543 14.1002 9.55261 13.8303C10.5646 13.493 11.3067 13.0207 11.9139 12.4135Z" fill="#F4F4F4"/>
</svg>
