<svg width="36" height="36" viewBox="0 0 36 36" fill="none" xmlns="http://www.w3.org/2000/svg">
<rect width="36" height="36" rx="18" fill="#F9F9F9"/>
<path d="M18 18.75C14.83 18.75 12.25 16.17 12.25 13C12.25 9.83 14.83 7.25 18 7.25C21.17 7.25 23.75 9.83 23.75 13C23.75 16.17 21.17 18.75 18 18.75ZM18 8.75C15.66 8.75 13.75 10.66 13.75 13C13.75 15.34 15.66 17.25 18 17.25C20.34 17.25 22.25 15.34 22.25 13C22.25 10.66 20.34 8.75 18 8.75Z" fill="#DDDDDD"/>
<path d="M26.5901 28.75C26.1801 28.75 25.8401 28.41 25.8401 28C25.8401 24.55 22.3202 21.75 18.0002 21.75C13.6802 21.75 10.1602 24.55 10.1602 28C10.1602 28.41 9.82016 28.75 9.41016 28.75C9.00016 28.75 8.66016 28.41 8.66016 28C8.66016 23.73 12.8502 20.25 18.0002 20.25C23.1502 20.25 27.3401 23.73 27.3401 28C27.3401 28.41 27.0001 28.75 26.5901 28.75Z" fill="#DDDDDD"/>
</svg>
