<svg width="20" height="13" viewBox="0 0 20 13" fill="none" xmlns="http://www.w3.org/2000/svg">
<path d="M10.7843 12.6C4.01936 12.6 0.160775 7.87027 0 0H3.38863C3.49994 5.77658 5.99813 8.22342 7.97689 8.72793V0H11.1676V4.98198C13.1217 4.76757 15.1746 2.4973 15.8672 0H19.058C18.797 1.29517 18.2768 2.52149 17.5298 3.60225C16.7829 4.68301 15.8254 5.59497 14.7171 6.28108C15.9542 6.908 17.0469 7.79535 17.9231 8.88457C18.7992 9.97379 19.4389 11.2401 19.8 12.6H16.2877C15.9636 11.4188 15.3049 10.3615 14.394 9.56054C13.4832 8.75956 12.3609 8.25055 11.1676 8.0973V12.6H10.7843V12.6Z" fill="#F4F4F4"/>
</svg>
