<svg width="19" height="19" viewBox="0 0 19 19" fill="none" xmlns="http://www.w3.org/2000/svg">
<path d="M16.1341 2.75625C14.3561 0.984374 11.9854 0 9.48292 0C4.28049 0 0.0658527 4.2 0.0658527 9.38437C0.0658527 11.025 0.526829 12.6656 1.31707 14.0437L0 18.9L5.00488 17.5875C6.38781 18.3094 7.90244 18.7031 9.48292 18.7031C14.6854 18.7031 18.9 14.5031 18.9 9.31875C18.8341 6.89063 17.9122 4.52812 16.1341 2.75625ZM14.0268 12.7312C13.8293 13.2562 12.9073 13.7812 12.4463 13.8469C12.0512 13.9125 11.5244 13.9125 10.9976 13.7812C10.6683 13.65 10.2073 13.5188 9.68049 13.2563C7.30976 12.2719 5.79512 9.90937 5.66342 9.7125C5.53171 9.58125 4.67561 8.46562 4.67561 7.28437C4.67561 6.10312 5.26829 5.57812 5.46585 5.31562C5.66341 5.05312 5.92683 5.05312 6.12439 5.05312C6.2561 5.05312 6.45366 5.05312 6.58536 5.05312C6.71707 5.05312 6.91463 4.9875 7.11219 5.44687C7.30976 5.90625 7.77073 7.0875 7.83658 7.15312C7.90244 7.28437 7.90244 7.41562 7.83658 7.54688C7.77073 7.67813 7.70488 7.80937 7.57317 7.94062C7.44146 8.07187 7.30975 8.26875 7.2439 8.33437C7.11219 8.46562 6.98049 8.59687 7.11219 8.79375C7.2439 9.05625 7.70488 9.77812 8.42927 10.4344C9.35122 11.2219 10.0756 11.4844 10.339 11.6156C10.6024 11.7469 10.7341 11.6812 10.8659 11.55C10.9976 11.4187 11.4585 10.8938 11.5902 10.6313C11.722 10.3688 11.9195 10.4344 12.1171 10.5C12.3146 10.5656 13.5 11.1563 13.6976 11.2875C13.961 11.4188 14.0927 11.4844 14.1585 11.55C14.2244 11.7469 14.2244 12.2062 14.0268 12.7312Z" fill="#F4F4F4"/>
</svg>
